<?xml version="1.0" encoding="UTF-8"?>
<svg version="1.1" xmlns="http://www.w3.org/2000/svg" width="512" height="512">
<path d="M0 0 C1.01790619 0.00215515 2.03581238 0.0043103 3.08456421 0.00653076 C17.69363523 0.05620146 32.02575853 0.30709809 46.375 3.3125 C47.34985352 3.51117676 48.32470703 3.70985352 49.32910156 3.91455078 C97.7109774 14.03517194 141.69928269 35.9516877 177.375 70.3125 C178.3640332 71.26068604 178.3640332 71.26068604 179.37304688 72.22802734 C188.86130305 81.37247479 197.6012044 90.66984009 205.375 101.3125 C206.23306152 102.46355017 207.09113451 103.61459177 207.94921875 104.765625 C213.98736829 112.95680614 219.34595521 121.47054105 224.375 130.3125 C224.73948242 130.94430176 225.10396484 131.57610352 225.47949219 132.22705078 C247.08534998 169.97532572 256.85198095 212.74189997 256.6875 255.9375 C256.68534485 256.95540619 256.6831897 257.97331238 256.68096924 259.02206421 C256.63129854 273.63113523 256.38040191 287.96325853 253.375 302.3125 C253.07698486 303.77478027 253.07698486 303.77478027 252.77294922 305.26660156 C242.65232806 353.6484774 220.7358123 397.63678269 186.375 433.3125 C185.74287598 433.97185547 185.11075195 434.63121094 184.45947266 435.31054688 C175.31502521 444.79880305 166.01765991 453.5387044 155.375 461.3125 C154.22394983 462.17056152 153.07290823 463.02863451 151.921875 463.88671875 C143.73224019 469.92427396 135.22961724 475.30707302 126.375 480.3125 C125.66778809 480.7146875 124.96057617 481.116875 124.23193359 481.53125 C101.09654164 494.5566741 75.92537591 503.30551461 49.9375 508.625 C49.21860596 508.77235596 48.49971191 508.91971191 47.7590332 509.0715332 C33.08339502 511.86090125 18.55831162 512.66142619 3.64770508 512.62817383 C0.70811513 512.6250221 -2.2304558 512.64854926 -5.16992188 512.67382812 C-18.54306192 512.71848737 -31.43916711 511.51301542 -44.625 509.3125 C-46.33055054 509.03031616 -46.33055054 509.03031616 -48.07055664 508.74243164 C-91.33802759 500.97044532 -132.38793216 480.98345309 -165.625 452.3125 C-166.37007813 451.67828125 -167.11515625 451.0440625 -167.8828125 450.390625 C-181.38779833 438.57948485 -194.05918743 425.82889772 -204.625 411.3125 C-205.48149066 410.16255169 -206.33826433 409.01281411 -207.1953125 407.86328125 C-213.23534209 399.67315742 -218.61867614 391.16870382 -223.625 382.3125 C-224.0271875 381.60528809 -224.429375 380.89807617 -224.84375 380.16943359 C-237.8691741 357.03404164 -246.61801461 331.86287591 -251.9375 305.875 C-252.08485596 305.15610596 -252.23221191 304.43721191 -252.3840332 303.6965332 C-255.35789088 288.05024391 -255.99800362 272.57681954 -255.9375 256.6875 C-255.93534485 255.66959381 -255.9331897 254.65168762 -255.93096924 253.60293579 C-255.88129854 238.99386477 -255.63040191 224.66174147 -252.625 210.3125 C-252.42632324 209.33764648 -252.22764648 208.36279297 -252.02294922 207.35839844 C-241.90232806 158.9765226 -219.9858123 114.98821731 -185.625 79.3125 C-184.99287598 78.65314453 -184.36075195 77.99378906 -183.70947266 77.31445312 C-174.56502521 67.82619695 -165.26765991 59.0862956 -154.625 51.3125 C-153.47394983 50.45443848 -152.32290823 49.59636549 -151.171875 48.73828125 C-142.98224019 42.70072604 -134.47961724 37.31792698 -125.625 32.3125 C-124.91778809 31.9103125 -124.21057617 31.508125 -123.48193359 31.09375 C-100.34654164 18.0683259 -75.17537591 9.31948539 -49.1875 4 C-48.46860596 3.85264404 -47.74971191 3.70528809 -47.0090332 3.5534668 C-31.36274391 0.57960912 -15.88931954 -0.06050362 0 0 Z " fill="#5E96F0" transform="translate(255.625,-0.3125)"/>
<path d="M0 0 C5.59385574 4.73435646 11.02947058 9.61982247 16.42358398 14.58007812 C17.3414418 15.42390045 18.25929962 16.26772278 19.20497131 17.13711548 C27.67622199 24.95459976 36.03045717 32.89201015 44.34315395 40.87766266 C49.90999514 46.21981923 55.51186686 51.51070999 61.22338867 56.69824219 C102.7104647 94.45105507 102.7104647 94.45105507 104.15892124 116.08016396 C104.35584128 125.45976598 103.15387993 134.60103006 101.39013481 143.79091644 C100.66230253 147.91216448 100.39801914 152.06854713 100.09832764 156.23802185 C99.72368917 160.55678217 98.88770778 164.76165396 98 169 C97.70198486 170.46228027 97.70198486 170.46228027 97.39794922 171.95410156 C87.27732806 220.3359774 65.3608123 264.32428269 31 300 C30.36787598 300.65935547 29.73575195 301.31871094 29.08447266 301.99804688 C19.94002521 311.48630305 10.64265991 320.2262044 0 328 C-1.15105017 328.85806152 -2.30209177 329.71613451 -3.453125 330.57421875 C-11.64275981 336.61177396 -20.14538276 341.99457302 -29 347 C-29.70721191 347.4021875 -30.41442383 347.804375 -31.14306641 348.21875 C-54.27845836 361.2441741 -79.44962409 369.99301461 -105.4375 375.3125 C-106.15639404 375.45985596 -106.87528809 375.60721191 -107.6159668 375.7590332 C-113.29949431 376.83928946 -119.02102816 377.47171561 -124.76909447 378.08925629 C-128.84046352 378.55022476 -132.83037558 379.13356149 -136.84306335 379.96748352 C-151.43710686 382.93636984 -167.81178548 384.81005579 -181.26499939 377.13806152 C-198.17317454 365.50885224 -212.08829587 349.52906482 -225.85145211 334.46179008 C-231.46805373 328.3228977 -237.22315183 322.32101686 -242.99064803 316.32423782 C-254.81490429 304.02390208 -266.46362489 291.57062698 -278 279 C-275 278 -275 278 -271.75 278.9375 C-258.70450837 282.37177933 -245.91668428 279.81097937 -234.234375 273.5078125 C-229.99411953 270.79798036 -226.37450544 267.74945049 -223 264 C-222.195625 263.154375 -221.39125 262.30875 -220.5625 261.4375 C-212.88200922 252.09899851 -210.80898946 242.52541756 -210.75 230.875 C-210.729375 229.87984375 -210.70875 228.8846875 -210.6875 227.859375 C-210.65194391 221.05038452 -211.73969191 215.40380654 -214 209 C-213.53307739 208.60413193 -213.06615479 208.20826385 -212.58508301 207.80039978 C-206.95976719 202.9628163 -201.69711323 197.82713884 -196.46875 192.56640625 C-195.59222778 191.68846909 -194.71570557 190.81053192 -193.81262207 189.9059906 C-191.03937204 187.12718504 -188.26963718 184.34490603 -185.5 181.5625 C-183.60989195 179.66680135 -181.71898482 177.77190217 -179.828125 175.87695312 C-175.21608996 171.25394811 -170.60692859 166.62809343 -166 162 C-160.38156218 166.62321021 -155.29262764 171.6378546 -150.21947479 176.84973526 C-148.72647384 178.38353206 -147.23007423 179.91394435 -145.73278809 181.44355774 C-144.11630183 183.09496538 -142.50000713 184.7465552 -140.88469839 186.39911473 C-136.87774518 190.49786719 -132.85925712 194.58505569 -128.83380127 198.66563416 C-128.24670403 199.26077617 -127.6596068 199.85591819 -127.05471873 200.46909481 C-124.63550545 202.92093714 -122.21585988 205.37235219 -119.79587317 207.82343113 C-112.95651657 214.75134916 -106.12905935 221.69006721 -99.33691406 228.66430664 C-93.92469781 234.22147343 -88.48752535 239.75283068 -83.0204823 245.25608629 C-80.13657994 248.16093117 -77.26612106 251.07656305 -74.42568207 254.02397346 C-57.31425496 272.05107665 -57.31425496 272.05107665 -34 279 C-33.07341583 279.07549576 -32.14683167 279.15099152 -31.19216919 279.22877502 C-28.49169068 278.94695278 -27.59627072 278.2476156 -25.66259766 276.37304688 C-25.05912506 275.79824585 -24.45565247 275.22344482 -23.83389282 274.63122559 C-23.20034882 274.00010864 -22.56680481 273.3689917 -21.9140625 272.71875 C-21.25288422 272.07184204 -20.59170593 271.42493408 -19.91049194 270.75842285 C-18.51734014 269.38619048 -17.1308075 268.0072102 -15.75048828 266.62207031 C-13.63547856 264.51046171 -11.48602389 262.43892156 -9.33203125 260.3671875 C-7.9820995 259.0283321 -6.63436635 257.68725551 -5.2890625 256.34375 C-4.64337311 255.7288269 -3.99768372 255.11390381 -3.33242798 254.48034668 C-2.74786835 253.88032837 -2.16330872 253.28031006 -1.56103516 252.66210938 C-1.04094879 252.14692749 -0.52086243 251.63174561 0.01498413 251.10095215 C1.56817855 247.78812516 0.54369696 244.50617939 0 241 C-0.19642971 239.72753922 -0.39285942 238.45507843 -0.59524155 237.14405823 C-2.75998259 226.57464229 -6.96984631 220.33547213 -14.73535156 212.90234375 C-15.84195716 211.79913273 -16.94590794 210.6932534 -18.04742432 209.58496094 C-21.01258569 206.61639044 -24.01295386 203.68600478 -27.0216341 200.76163864 C-30.17164906 197.6872181 -33.28716784 194.57821472 -36.40667725 191.47290039 C-42.30428484 185.6124224 -48.23176999 179.78317895 -54.17092681 173.9648447 C-60.9371752 167.33325339 -67.66892065 160.66709044 -74.39814806 153.99796867 C-88.22769274 140.29347374 -102.09945216 126.63245219 -116 113 C-112.67419794 109.05688111 -109.32697145 105.20167644 -105.6628418 101.56518555 C-104.8656926 100.77133957 -104.0685434 99.97749359 -103.24723816 99.15959167 C-102.40639175 98.32704361 -101.56554535 97.49449554 -100.69921875 96.63671875 C-99.82223831 95.76352493 -98.94525787 94.89033112 -98.04170227 93.99067688 C-94.78471353 90.74791357 -91.52314108 87.50978525 -88.26141357 84.27178955 C-85.05046284 81.08365734 -81.84323299 77.89181199 -78.63671875 74.69921875 C-77.78575119 73.85654953 -76.93478363 73.01388031 -76.05802917 72.14567566 C-74.88594658 70.9785479 -74.88594658 70.9785479 -73.69018555 69.7878418 C-72.99990768 69.10280075 -72.30962982 68.4177597 -71.59843445 67.71195984 C-69.9202392 66.07675116 -69.9202392 66.07675116 -69 64 C-68.40936768 64.21076172 -67.81873535 64.42152344 -67.21020508 64.63867188 C-60.6074017 66.82822922 -54.62504196 67.54648269 -47.6875 67.5 C-46.6778418 67.49355469 -45.66818359 67.48710937 -44.62792969 67.48046875 C-31.74710696 67.16579741 -21.60020122 62.76149409 -12 54 C-0.65066013 41.5642276 2.6974766 27.31770847 2 11 C1.51328114 7.28400727 0.84973951 3.64932772 0 0 Z " fill="#3863E6" transform="translate(411,133)"/>
<path d="M0 0 C2.8535136 1.30761543 5.02392192 2.73039252 7.32470703 4.85961914 C7.95281281 5.4394606 8.58091858 6.01930206 9.22805786 6.61671448 C12.1211101 9.35111013 14.99486913 12.10434491 17.8515625 14.87670898 C19.34111833 16.30883885 20.84564075 17.72559939 22.36621094 19.12475586 C31.57243532 27.60699757 37.46035449 34.9511285 41.40332031 46.90771484 C46.43270494 60.58662091 54.18212022 69.15797186 64.6015625 79.06640625 C66.29450597 80.73126801 67.98409099 82.39955094 69.67050171 84.07102966 C74.05349593 88.39757275 78.4795962 92.67707465 82.9173584 96.94732666 C87.46355765 101.33826935 91.96599512 105.77362881 96.47265625 110.20507812 C105.27359089 118.84659925 114.12086068 127.43890347 123 136 C127.02172041 134.13659499 129.85862921 131.48544295 132.99365234 128.40795898 C133.58266327 127.83690933 134.17167419 127.26585968 134.77853394 126.67750549 C136.7206308 124.7900305 138.65435926 122.89432947 140.5859375 120.99609375 C141.24671925 120.34720751 141.90750099 119.69832127 142.58830643 119.0297718 C146.08109043 115.59621873 149.56615642 112.15501385 153.04638672 108.70874023 C155.92809848 105.85823629 158.82475537 103.02435272 161.73583984 100.20385742 C165.25325966 96.79581557 168.74303179 93.36166844 172.21458817 89.90693855 C173.54100612 88.59580531 174.87680508 87.29409227 176.22196579 86.00219536 C178.10229526 84.19230873 179.94500903 82.35081663 181.78271484 80.49780273 C182.34466553 79.972258 182.90661621 79.44671326 183.4855957 78.90524292 C185.25553388 77.187882 185.25553388 77.187882 187 74 C186.84193374 70.04120333 185.76475045 66.5295009 184 63 C182.47187938 46.83353767 184.80939071 33.02676734 195 20 C202.53519035 11.7204321 213.69763283 3.8652157 225.18652344 2.79663086 C227.71153371 2.6951114 230.22301749 2.67240791 232.75 2.6875 C233.63655273 2.68878906 234.52310547 2.69007812 235.43652344 2.69140625 C241.65978219 2.78289113 247.2483115 3.45714824 253 6 C253 9 253 9 251.86108398 10.49967957 C251.32813721 11.02596451 250.79519043 11.55224945 250.24609375 12.09448242 C249.64547119 12.69487839 249.04484863 13.29527435 248.42602539 13.91386414 C247.76981201 14.55459366 247.11359863 15.19532318 246.4375 15.85546875 C245.77161865 16.51710526 245.1057373 17.17874176 244.41967773 17.86042786 C242.28670621 19.9765774 240.1435509 22.08207266 238 24.1875 C236.55400575 25.61845203 235.10868429 27.05008428 233.6640625 28.48242188 C230.1171401 31.99622824 226.56104822 35.50051246 223 39 C225.73257042 44.79559764 230.39918361 48.80843512 234.875 53.3125 C236.24205078 54.72885742 236.24205078 54.72885742 237.63671875 56.17382812 C238.95736328 57.50510742 238.95736328 57.50510742 240.3046875 58.86328125 C241.5110083 60.08978394 241.5110083 60.08978394 242.74169922 61.34106445 C244.79941199 63.24656854 244.79941199 63.24656854 246.94836426 62.77716064 C249.24711217 61.90639379 250.37521751 60.97699263 252.08447266 59.22436523 C252.94523911 58.35357582 252.94523911 58.35357582 253.82339478 57.4651947 C254.43081512 56.83601639 255.03823547 56.20683807 255.6640625 55.55859375 C256.29734467 54.91632339 256.93062683 54.27405304 257.58309937 53.61231995 C259.60434512 51.56104891 261.61539842 49.50017542 263.625 47.4375 C265.64260829 45.37216179 267.66234902 43.30910136 269.68832397 41.25196838 C270.94882695 39.97161077 272.20436199 38.68634031 273.45449829 37.39585876 C274.93207726 35.89267682 276.46151505 34.44078438 278 33 C278.66 33 279.32 33 280 33 C280.48198463 34.24891614 280.96045677 35.49918808 281.4375 36.75 C281.70433594 37.44609375 281.97117187 38.1421875 282.24609375 38.859375 C286.56523022 51.1230371 284.08962923 63.44840695 279 75 C277.23650944 78.22691073 275.2705735 81.11295359 273 84 C271.88625 85.546875 271.88625 85.546875 270.75 87.125 C261.27343631 97.03231658 249.95658259 102.14586188 236.36987305 102.53149414 C235.36093994 102.54172607 234.35200684 102.55195801 233.3125 102.5625 C231.86967651 102.58461548 231.86967651 102.58461548 230.39770508 102.60717773 C223.54490207 102.50903709 218.16960822 100.94804769 212 98 C211.75798859 98.56732849 211.51597717 99.13465698 211.26663208 99.71917725 C209.75147793 102.44751337 207.94782424 104.29187761 205.73388672 106.49316406 C204.85312469 107.37377502 203.97236267 108.25438599 203.06491089 109.16168213 C202.10327649 110.11310431 201.1415328 111.06441603 200.1796875 112.015625 C199.19561893 112.99596129 198.21199258 113.97674168 197.22879028 114.95794678 C194.64557286 117.53354467 192.05640488 120.10307857 189.46594238 122.67138672 C186.8213238 125.29551067 184.1823899 127.92533771 181.54296875 130.5546875 C176.36751928 135.7087167 171.18576878 140.85635157 166 146 C170.62082976 151.61749165 175.63522372 156.69991091 180.84973526 161.76706696 C182.92394854 163.78273736 184.99176785 165.80492478 187.06022346 167.82650054 C188.17285557 168.91373113 189.28582583 170.00061577 190.39911473 171.08717382 C197.56608032 178.08342494 204.69340077 185.11994917 211.82343113 192.15380323 C218.74995835 198.98628002 225.68794719 205.80602394 232.66430664 212.58764648 C238.22340237 217.99171662 243.75477006 223.42253043 249.25608629 228.8854292 C252.15971973 231.76683631 255.07476955 234.63377911 258.02397346 237.46858788 C282.21700571 260.75575143 282.21700571 260.75575143 283 279 C282.6472203 282.73619933 281.85234019 284.65110949 279.25952148 287.33740234 C278.39743324 288.24261124 278.39743324 288.24261124 277.51792908 289.16610718 C276.89197342 289.79965118 276.26601776 290.43319519 275.62109375 291.0859375 C274.97560074 291.74711578 274.33010773 292.40829407 273.66505432 293.08950806 C272.29765319 294.4815078 270.92469647 295.86806889 269.54663086 297.24951172 C267.44599863 299.36643546 265.38247411 301.51550095 263.31835938 303.66796875 C261.9839129 305.0177461 260.64738989 306.36547431 259.30859375 307.7109375 C258.69680771 308.35662689 258.08502167 309.00231628 257.45469666 309.66757202 C256.55951073 310.54441147 256.55951073 310.54441147 255.64624023 311.43896484 C255.13407455 311.95905121 254.62190887 312.47913757 254.09422302 313.01498413 C250.78651507 314.57076152 247.50253658 313.54307339 244 313 C242.72753922 312.80357029 241.45507843 312.60714058 240.14405823 312.40475845 C229.57464229 310.24001741 223.33547213 306.03015369 215.90234375 298.26464844 C214.79913273 297.15804284 213.6932534 296.05409206 212.58496094 294.95257568 C209.61639044 291.98741431 206.68600478 288.98704614 203.76163864 285.9783659 C200.6872181 282.82835094 197.57821472 279.71283216 194.47290039 276.59332275 C188.6124224 270.69571516 182.78317895 264.76823001 176.9648447 258.82907319 C170.33325339 252.0628248 163.66709044 245.33107935 156.99796867 238.60185194 C143.29347374 224.77230726 129.63245219 210.90054784 116 197 C112.05245575 200.3279333 108.197224 203.67748459 104.56518555 207.35302734 C103.37441658 208.55359268 103.37441658 208.55359268 102.15959167 209.77841187 C101.32704361 210.62239532 100.49449554 211.46637878 99.63671875 212.3359375 C97.84583389 214.13945277 96.05481439 215.94283436 94.26367188 217.74609375 C91.45927906 220.57543536 88.65632455 223.40618012 85.85620117 226.23974609 C83.1415158 228.98445542 80.42079314 231.72306153 77.69921875 234.4609375 C76.43521492 235.74513077 76.43521492 235.74513077 75.14567566 237.05526733 C73.9785479 238.22746323 73.9785479 238.22746323 72.7878418 239.42333984 C72.10280075 240.11583832 71.4177597 240.80833679 70.71195984 241.52182007 C69 243 69 243 67 243 C67.28222412 243.59063232 67.56444824 244.18126465 67.85522461 244.78979492 C70.80183526 251.43701141 71.67281498 257.07717098 71.5625 264.3125 C71.55299316 265.31998291 71.54348633 266.32746582 71.53369141 267.36547852 C71.2051996 279.15985325 67.6765045 287.98281021 60 297 C59.4225 297.845625 58.845 298.69125 58.25 299.5625 C50.17664418 308.30863547 37.60585445 314.4735242 25.6796875 315.203125 C17.23691824 315.30714269 9.68567647 314.84283824 2 311 C3.27845732 308.18466245 4.58646094 306.17818824 6.81323242 304.0390625 C7.37689011 303.49169434 7.94054779 302.94432617 8.52128601 302.38037109 C9.42920647 301.5114624 9.42920647 301.5114624 10.35546875 300.625 C11.6299758 299.38063684 12.90405162 298.13583186 14.17773438 296.890625 C16.18759097 294.93671414 18.20107515 292.98695744 20.22241211 291.04492188 C22.17366356 289.16595655 24.10913435 287.27186309 26.04296875 285.375 C26.95999825 284.50609131 26.95999825 284.50609131 27.89555359 283.61962891 C29.779518 281.81705024 29.779518 281.81705024 32 279 C31.54638123 274.81783172 29.24710539 272.90134901 26.30859375 270.015625 C25.84389175 269.55516785 25.37918976 269.09471069 24.90040588 268.62030029 C23.41968181 267.15632189 21.92885481 265.70313959 20.4375 264.25 C19.42965336 263.25720551 18.42248367 262.2637233 17.41601562 261.26953125 C14.95180539 258.83833527 12.47842671 256.41671132 10 254 C7.14220983 255.29719924 5.08991464 256.6636826 2.88378906 258.88916016 C2.30348938 259.4696109 1.7231897 260.05006165 1.12530518 260.64810181 C0.51161072 261.27211884 -0.10208374 261.89613586 -0.734375 262.5390625 C-1.37240051 263.17991791 -2.01042603 263.82077332 -2.66778564 264.48104858 C-4.69994069 266.52437821 -6.72502218 268.57455982 -8.75 270.625 C-10.1284453 272.0134786 -11.50734636 273.4015049 -12.88671875 274.7890625 C-16.26311894 278.18748697 -19.63319288 281.59207254 -23 285 C-25.58551263 283.70724369 -25.68768816 282.89055586 -26.625 280.1875 C-30.19616348 267.37549081 -29.49827076 252.65912502 -23 241 C-15.2629827 228.37991847 -5.69779564 220.70017873 8.3203125 215.8515625 C12.57324039 214.86733927 16.46471352 214.6584656 20.8125 214.6875 C21.99900146 214.68834595 21.99900146 214.68834595 23.20947266 214.68920898 C28.50985408 214.7723842 33.0969628 215.44232371 38.0546875 217.44140625 C40.47108366 218.13527101 41.6319221 217.79254137 44 217 C46.12531611 215.14883033 48.08540937 213.29334886 50.05371094 211.28686523 C50.64926285 210.6917514 51.24481476 210.09663757 51.8584137 209.48348999 C53.82426219 207.51555224 55.77927273 205.53720323 57.734375 203.55859375 C59.09563809 202.19173522 60.45756523 200.82553774 61.82012939 199.4599762 C65.40406787 195.86458498 68.97890601 192.26027557 72.55194092 188.65405273 C76.19976018 184.97554208 79.85608983 181.30551238 83.51171875 177.63476562 C90.68284736 170.43146526 97.84439333 163.21871743 105 156 C103.69659779 153.14081317 102.29907148 151.03284117 100.11839294 148.77694702 C99.23449135 147.85640533 99.23449135 147.85640533 98.33273315 146.91726685 C97.36450119 145.9244722 97.36450119 145.9244722 96.37670898 144.91162109 C95.69481003 144.20533569 95.01291107 143.49905029 94.31034851 142.7713623 C87.12298566 135.34523972 79.86669292 127.98586811 72.60620117 120.63134766 C69.18089314 117.15736381 65.77750019 113.66398128 62.39233398 110.15087891 C40.49515455 85.92922423 40.49515455 85.92922423 12.29248047 70.9095459 C0.38105714 67.34805967 -6.84528156 58.80970209 -15.0625 49.875 C-16.63109191 48.23086223 -18.20335204 46.59021616 -19.77929688 44.953125 C-23.56249181 41.00773316 -27.29918989 37.02269373 -31 33 C-29.70280076 30.14220983 -28.3363174 28.08991464 -26.11083984 25.88378906 C-25.5303891 25.30348938 -24.94993835 24.7231897 -24.35189819 24.12530518 C-23.72788116 23.51161072 -23.10386414 22.89791626 -22.4609375 22.265625 C-21.82008209 21.62759949 -21.17922668 20.98957397 -20.51895142 20.33221436 C-18.47562179 18.30005931 -16.42544018 16.27497782 -14.375 14.25 C-12.9865214 12.8715547 -11.5984951 11.49265364 -10.2109375 10.11328125 C-6.81251303 6.73688106 -3.40792746 3.36680712 0 0 Z " fill="#FDFEFE" transform="translate(130,99)"/>
<path d="M0 0 C3.54561307 1.51763408 5.87640781 3.59545318 8.62339783 6.2819519 C9.54722763 7.18135498 10.47105743 8.08075806 11.42288208 9.00741577 C12.43954275 10.00723208 13.45604753 11.00720692 14.47241211 12.00732422 C15.54830667 13.05921908 16.62452233 14.1107856 17.70103455 15.16204834 C21.23491184 18.61770829 24.75746624 22.08477464 28.27734375 25.5546875 C28.87789306 26.14669653 29.47844237 26.73870557 30.09719014 27.34865427 C35.77057631 32.94351514 41.43849891 38.54387395 47.09612179 44.15467644 C54.3074854 51.30540163 61.54238677 58.43032878 68.81163973 65.52220905 C73.93378496 70.52360586 79.0263178 75.55400661 84.0986138 80.60594571 C87.12147138 83.61507691 90.15535761 86.61048676 93.22205925 89.57497787 C118.36889269 113.92054563 118.36889269 113.92054563 119 132 C118.6419947 135.73460969 117.85211167 137.65134625 115.25952148 140.33740234 C114.68479599 140.94087494 114.1100705 141.54434753 113.51792908 142.16610718 C112.89197342 142.79965118 112.26601776 143.43319519 111.62109375 144.0859375 C110.97560074 144.74711578 110.33010773 145.40829407 109.66505432 146.08950806 C108.29765319 147.4815078 106.92469647 148.86806889 105.54663086 150.24951172 C103.44599863 152.36643546 101.38247411 154.51550095 99.31835938 156.66796875 C97.9839129 158.0177461 96.64738989 159.36547431 95.30859375 160.7109375 C94.69680771 161.35662689 94.08502167 162.00231628 93.45469666 162.66757202 C92.85790604 163.25213165 92.26111542 163.83669128 91.64624023 164.43896484 C91.13407455 164.95905121 90.62190887 165.47913757 90.09422302 166.01498413 C86.78651507 167.57076152 83.50253658 166.54307339 80 166 C78.72753922 165.80357029 77.45507843 165.60714058 76.14405823 165.40475845 C65.57464229 163.24001741 59.33547213 159.03015369 51.90234375 151.26464844 C50.79913273 150.15804284 49.6932534 149.05409206 48.58496094 147.95257568 C45.61639044 144.98741431 42.68600478 141.98704614 39.76163864 138.9783659 C36.6872181 135.82835094 33.57821472 132.71283216 30.47290039 129.59332275 C24.6124224 123.69571516 18.78317895 117.76823001 12.9648447 111.82907319 C6.33325339 105.0628248 -0.33290956 98.33107935 -7.00203133 91.60185194 C-20.70652626 77.77230726 -34.36754781 63.90054784 -48 50 C-46.31888614 46.42826962 -44.36302014 44.12059926 -41.55029297 41.32324219 C-40.16908768 39.94226349 -40.16908768 39.94226349 -38.75997925 38.53338623 C-37.75415535 37.5377747 -36.7482222 36.54227352 -35.7421875 35.546875 C-34.71327851 34.52169807 -33.68481163 33.49607725 -32.6567688 32.47003174 C-29.95518419 29.77606836 -27.24764659 27.08816632 -24.53881836 24.40148926 C-21.77355511 21.65671696 -19.01397367 18.90624528 -16.25390625 16.15625 C-10.84147726 10.76524427 -5.42274562 5.38063036 0 0 Z " fill="#F2BC44" transform="translate(294,246)"/>
<path d="M0 0 C0.48198463 1.24891614 0.96045677 2.49918808 1.4375 3.75 C1.83775391 4.79414063 1.83775391 4.79414063 2.24609375 5.859375 C6.56523022 18.1230371 4.08962923 30.44840695 -1 42 C-2.76349056 45.22691073 -4.7294265 48.11295359 -7 51 C-8.11375 52.546875 -8.11375 52.546875 -9.25 54.125 C-18.72656369 64.03231658 -30.04341741 69.14586188 -43.63012695 69.53149414 C-44.63906006 69.54172607 -45.64799316 69.55195801 -46.6875 69.5625 C-47.64938232 69.57724365 -48.61126465 69.5919873 -49.60229492 69.60717773 C-56.45509793 69.50903709 -61.83039178 67.94804769 -68 65 C-68.21491341 65.53967533 -68.42982681 66.07935066 -68.65125275 66.63537979 C-70.48258008 69.84605816 -72.97645493 72.2518752 -75.57995605 74.83392334 C-76.15603466 75.41312192 -76.73211326 75.9923205 -77.32564878 76.58907056 C-79.25858598 78.52998964 -81.19859901 80.46367633 -83.13867188 82.39746094 C-84.52528237 83.78678114 -85.91146695 85.17652655 -87.29725647 86.56666565 C-91.06313237 90.34166845 -94.83531839 94.11030648 -98.60892677 97.87757778 C-102.55213067 101.81572529 -106.49046068 105.75874194 -110.42956543 109.70098877 C-117.04368607 116.31874925 -123.66201582 122.93227832 -130.28271484 129.54345703 C-137.9470594 137.19690803 -145.60416004 144.85754975 -153.25755453 152.52194953 C-159.82120063 159.09465727 -166.38871838 165.66347732 -172.959517 172.22903466 C-176.88743873 176.15383166 -180.81398075 180.07998332 -184.73704529 184.00963593 C-188.42278906 187.70113652 -192.11335158 191.3877494 -195.80776787 195.07056999 C-197.1664506 196.42659759 -198.52341462 197.78434967 -199.87857246 199.14389992 C-201.72116454 200.99191508 -203.56973704 202.8337254 -205.42004395 204.67401123 C-205.96147773 205.21990646 -206.50291152 205.76580169 -207.06075239 206.3282392 C-210.77169953 210 -210.77169953 210 -213 210 C-212.71777588 210.59063232 -212.43555176 211.18126465 -212.14477539 211.78979492 C-209.19816474 218.43701141 -208.32718502 224.07717098 -208.4375 231.3125 C-208.45176025 232.82372437 -208.45176025 232.82372437 -208.46630859 234.36547852 C-208.7948004 246.15985325 -212.3234955 254.98281021 -220 264 C-220.5775 264.845625 -221.155 265.69125 -221.75 266.5625 C-229.82335582 275.30863547 -242.39414555 281.4735242 -254.3203125 282.203125 C-262.76308176 282.30714269 -270.31432353 281.84283824 -278 278 C-276.72154268 275.18466245 -275.41353906 273.17818824 -273.18676758 271.0390625 C-272.62310989 270.49169434 -272.05945221 269.94432617 -271.47871399 269.38037109 C-270.87343369 268.80109863 -270.26815338 268.22182617 -269.64453125 267.625 C-268.3700242 266.38063684 -267.09594838 265.13583186 -265.82226562 263.890625 C-263.81240903 261.93671414 -261.79892485 259.98695744 -259.77758789 258.04492188 C-257.82633644 256.16595655 -255.89086565 254.27186309 -253.95703125 252.375 C-253.34567825 251.79572754 -252.73432526 251.21645508 -252.10444641 250.61962891 C-250.220482 248.81705024 -250.220482 248.81705024 -248 246 C-248.4390001 241.67874039 -251.01630784 239.68051398 -254.0625 236.75 C-255.44115234 235.41195312 -255.44115234 235.41195312 -256.84765625 234.046875 C-257.55792969 233.37140625 -258.26820313 232.6959375 -259 232 C-200.03619733 173.03619733 -141.07239467 114.07239467 -46 19 C-45.25234375 19.80566406 -44.5046875 20.61132812 -43.734375 21.44140625 C-42.74025802 22.48241554 -41.74542904 23.52274524 -40.75 24.5625 C-40.25886719 25.09552734 -39.76773438 25.62855469 -39.26171875 26.17773438 C-37.64729015 27.90226991 -37.64729015 27.90226991 -35 30 C-31.76924602 29.70295091 -30.1374073 28.50262525 -27.91552734 26.22436523 C-27.34168304 25.64383896 -26.76783875 25.06331268 -26.17660522 24.4651947 C-25.2654747 23.52142723 -25.2654747 23.52142723 -24.3359375 22.55859375 C-23.70265533 21.91632339 -23.06937317 21.27405304 -22.41690063 20.61231995 C-20.39565488 18.56104891 -18.38460158 16.50017542 -16.375 14.4375 C-14.35739171 12.37216179 -12.33765098 10.30910136 -10.31167603 8.25196838 C-9.05117305 6.97161077 -7.79563801 5.68634031 -6.54550171 4.39585876 C-2.2245155 0 -2.2245155 0 0 0 Z " fill="#E7EBF4" transform="translate(410,132)"/>
<path d="M0 0 C2.8535136 1.30761543 5.02392192 2.73039252 7.32470703 4.85961914 C7.95281281 5.4394606 8.58091858 6.01930206 9.22805786 6.61671448 C12.1211101 9.35111013 14.99486913 12.10434491 17.8515625 14.87670898 C19.34111833 16.30883885 20.84564075 17.72559939 22.36621094 19.12475586 C31.57341355 27.60789888 37.46243736 34.95477488 41.40771484 46.91210938 C46.42664112 60.55954035 54.13401164 69.11067744 64.53125 78.99609375 C66.21940467 80.6561616 67.90419724 82.31965453 69.58581543 83.98634338 C73.95818491 88.30225458 78.37364089 92.57113616 82.80078125 96.83074951 C87.32714876 101.20205536 91.80995066 105.61757794 96.296875 110.02929688 C104.69145517 118.27144718 113.12639853 126.47068181 121.5949173 134.63681698 C122.73992614 135.74768156 123.8719341 136.8719341 125 138 C124.52691406 138.40089844 124.05382812 138.80179688 123.56640625 139.21484375 C118.11746523 143.89902112 113.03217373 148.87386452 108 154 C107.34 154.66 106.68 155.32 106 156 C105.36078015 155.25861691 105.36078015 155.25861691 104.70864677 154.50225639 C100.64783365 149.82249509 96.48356655 145.27777117 92.17626953 140.82470703 C91.53265472 140.15685181 90.88903992 139.48899658 90.22592163 138.80090332 C84.29746674 132.66129145 78.32553355 126.56419086 72.33978462 120.48047066 C68.34093162 116.41485329 64.35765317 112.33631104 60.40869141 108.22216797 C39.43529227 85.2059067 39.43529227 85.2059067 12.4103241 71.02423096 C0.46788966 67.35229443 -6.79784488 58.8612807 -15.0625 49.875 C-16.63109191 48.23086223 -18.20335204 46.59021616 -19.77929688 44.953125 C-23.56249181 41.00773316 -27.29918989 37.02269373 -31 33 C-29.70280076 30.14220983 -28.3363174 28.08991464 -26.11083984 25.88378906 C-25.5303891 25.30348938 -24.94993835 24.7231897 -24.35189819 24.12530518 C-23.72788116 23.51161072 -23.10386414 22.89791626 -22.4609375 22.265625 C-21.82008209 21.62759949 -21.17922668 20.98957397 -20.51895142 20.33221436 C-18.47562179 18.30005931 -16.42544018 16.27497782 -14.375 14.25 C-12.9865214 12.8715547 -11.5984951 11.49265364 -10.2109375 10.11328125 C-6.81251303 6.73688106 -3.40792746 3.36680712 0 0 Z " fill="#E7EBF4" transform="translate(130,99)"/>
<path d="M0 0 C7.35726148 6.22232393 7.35726148 6.22232393 10.625 9.5625 C11.15351563 10.10003906 11.68203125 10.63757813 12.2265625 11.19140625 C13.10441406 12.08666016 13.10441406 12.08666016 14 13 C18.6855063 17.70193672 23.4052374 22.36930437 28.12060547 27.04125977 C37.37112895 36.21008792 46.6090107 45.3915478 55.83955193 54.58049107 C61.42505549 60.14014364 67.01521534 65.69496512 72.61621094 71.23901367 C77.51260352 76.08565002 82.40021234 80.94094344 87.27737534 85.80693287 C89.85700321 88.38003627 92.44086787 90.94853836 95.03533554 93.50668526 C97.9224515 96.35369407 100.78979344 99.21983861 103.65576172 102.08813477 C104.52112045 102.93551712 105.38647919 103.78289948 106.27806091 104.65596008 C107.43893471 105.82714386 107.43893471 105.82714386 108.6232605 107.02198792 C109.64362302 108.03543699 109.64362302 108.03543699 110.68459892 109.06935978 C112 111 112 111 111.84436226 113.0940237 C110.52657064 116.06867063 108.3995263 117.93303701 106.08984375 120.203125 C105.60294571 120.6857782 105.11604767 121.1684314 104.61439514 121.66571045 C103.0623455 123.2010085 101.50017864 124.72552925 99.9375 126.25 C98.88147643 127.2909722 97.82612962 128.3326314 96.77148438 129.375 C94.18878585 131.92467633 91.59691118 134.46479196 89 137 C85.41407463 135.47800665 83.1206208 133.36744251 80.38092041 130.62142944 C79.45827896 129.70153732 78.53563751 128.7816452 77.58503723 127.83387756 C76.56994481 126.81170737 75.55494864 125.78944158 74.54003906 124.76708984 C73.46600073 123.69248727 72.39152162 122.6183251 71.31663513 121.54457092 C68.4013126 118.6298224 65.49219928 115.70894689 62.58415318 112.78694105 C59.54346373 109.73375233 56.49711269 106.68622334 53.45135498 103.63809204 C47.68529328 97.86581322 41.92434896 92.08845491 36.16522098 86.30925906 C29.60813567 79.72982199 23.04537301 73.15606047 16.48212481 66.58277202 C2.98175156 53.06149151 -10.51146743 39.53309201 -24 26 C-22.2241334 22.18750121 -19.99634812 19.76650504 -16.9921875 16.796875 C-16.50670441 16.3142218 -16.02122131 15.8315686 -15.52102661 15.33428955 C-13.97700134 13.80141438 -12.42615176 12.27565996 -10.875 10.75 C-9.82375991 9.70879639 -8.77297343 8.66713459 -7.72265625 7.625 C-5.15366996 5.07800536 -2.57851839 2.53734823 0 0 Z " fill="#F6CF46" transform="translate(270,270)"/>
<path d="M0 0 C2.8535136 1.30761543 5.02392192 2.73039252 7.32470703 4.85961914 C7.95281281 5.4394606 8.58091858 6.01930206 9.22805786 6.61671448 C12.1211101 9.35111013 14.99486913 12.10434491 17.8515625 14.87670898 C19.34111833 16.30883885 20.84564075 17.72559939 22.36621094 19.12475586 C31.57341355 27.60789888 37.46243736 34.95477488 41.40771484 46.91210938 C46.42664112 60.55954035 54.13401164 69.11067744 64.53125 78.99609375 C66.21940467 80.6561616 67.90419724 82.31965453 69.58581543 83.98634338 C73.95818491 88.30225458 78.37364089 92.57113616 82.80078125 96.83074951 C87.32714876 101.20205536 91.80995066 105.61757794 96.296875 110.02929688 C104.69145517 118.27144718 113.12639853 126.47068181 121.5949173 134.63681698 C122.73992614 135.74768156 123.8719341 136.8719341 125 138 C123.73742767 139.17560179 122.46462916 140.34022865 121.1875 141.5 C120.47980469 142.1496875 119.77210938 142.799375 119.04296875 143.46875 C117 145 117 145 114 145 C111.74509048 143.11144066 111.74509048 143.11144066 109.05474854 140.40878296 C108.55893083 139.91482297 108.06311313 139.42086297 107.55227065 138.91193449 C105.88472614 137.24699951 104.22816194 135.57154647 102.57128906 133.89599609 C101.38090063 132.70312543 100.18984435 131.51092091 98.99816895 130.31933594 C96.42863611 127.7470923 93.86394607 125.1701467 91.30286407 122.58948898 C87.25024528 118.50590024 83.18732922 114.432663 79.12298584 110.36074829 C72.69053756 103.91379049 66.26534424 97.45965535 59.8430593 91.00257456 C48.35722571 79.45495836 36.85937439 67.91931446 25.35862899 56.3865515 C21.32412372 52.34024082 17.29282401 48.29077101 13.26419878 44.23860621 C10.75025398 41.71077787 8.23427596 39.18498006 5.71784973 36.65962219 C4.55560758 35.49233469 3.39424816 34.32416746 2.23386383 33.15503311 C-3.33306045 27.54682984 -8.88163569 22.01644569 -15 17 C-13.60403514 14.09380865 -12.26935799 12.02878234 -9.9609375 9.765625 C-9.38085938 9.19199219 -8.80078125 8.61835937 -8.203125 8.02734375 C-7.59984375 7.44082031 -6.9965625 6.85429688 -6.375 6.25 C-5.76398438 5.64800781 -5.15296875 5.04601562 -4.5234375 4.42578125 C-3.02011376 2.94594695 -1.51065144 1.47235324 0 0 Z " fill="#CCD1E1" transform="translate(130,99)"/>
<path d="M0 0 C5.40589123 2.5399677 9.13083287 6.72140161 13.32885742 10.90332031 C14.81315947 12.37565416 16.31510259 13.8283063 17.81835938 15.28125 C18.75099609 16.20679688 19.68363281 17.13234375 20.64453125 18.0859375 C21.50409424 18.9320459 22.36365723 19.7781543 23.24926758 20.64990234 C25 23 25 23 24.77992249 24.95310974 C23.91327867 27.22759832 22.98747788 28.38697937 21.27197266 30.1003418 C20.70112946 30.67741379 20.13028625 31.25448578 19.54214478 31.8490448 C18.92237762 32.4596022 18.30261047 33.07015961 17.6640625 33.69921875 C16.7113295 34.65269951 16.7113295 34.65269951 15.73934937 35.6254425 C14.39623029 36.96622302 13.04942155 38.30331615 11.69921875 39.63696289 C9.63103852 41.68153042 7.57651656 43.73910877 5.5234375 45.79882812 C4.21693655 47.09975292 2.9096703 48.39990969 1.6015625 49.69921875 C0.98584381 50.31584885 0.37012512 50.93247894 -0.26425171 51.5677948 C-0.84139923 52.13541031 -1.41854675 52.70302582 -2.01318359 53.2878418 C-2.51868744 53.78873825 -3.02419128 54.2896347 -3.54501343 54.80570984 C-5 56 -5 56 -8 57 C-11.30978049 53.81367626 -14.60290041 50.61137229 -17.8815918 47.39306641 C-18.99954232 46.30028398 -20.12193584 45.21202796 -21.2487793 44.12841797 C-22.86652023 42.57122656 -24.46765715 40.99852955 -26.06640625 39.421875 C-26.57466446 38.93942322 -27.08292267 38.45697144 -27.60658264 37.9598999 C-29.00219727 36.56542969 -29.00219727 36.56542969 -31 34 C-30.6718186 30.71716365 -29.43681417 29.06731442 -27.13256836 26.79199219 C-26.53202133 26.19167175 -25.9314743 25.59135132 -25.31272888 24.97283936 C-24.66167679 24.33727112 -24.01062469 23.70170288 -23.33984375 23.046875 C-22.67537735 22.38665344 -22.01091095 21.72643188 -21.3263092 21.04620361 C-19.20364437 18.9403236 -17.07078395 16.84511672 -14.9375 14.75 C-13.49606066 13.32360768 -12.05529691 11.8965323 -10.61523438 10.46875 C-7.08461168 6.97119406 -3.54480947 3.48317435 0 0 Z " fill="#3A64E7" transform="translate(138,352)"/>
<path d="M0 0 C3.05167527 1.2267464 4.87251226 3.36637192 7.16494751 5.6987915 C7.64760071 6.18568954 8.13025391 6.67258759 8.62753296 7.17424011 C10.16283101 8.72628975 11.68735176 10.28845662 13.21182251 11.85113525 C14.2527947 12.90715882 15.29445391 13.96250564 16.33682251 15.01715088 C18.88649883 17.5998494 21.42661447 20.19172407 23.96182251 22.78863525 C21.51568067 27.39193237 18.31720771 30.77101028 14.68447876 34.43707275 C14.07672104 35.05385895 13.46896332 35.67064514 12.8427887 36.30612183 C11.5620308 37.60133305 10.27848989 38.89379757 8.99234009 40.18365479 C7.02198731 42.16598465 5.07105902 44.16621743 3.12002563 46.1675415 C1.87182758 47.42519522 0.62251648 48.68174544 -0.62802124 49.93707275 C-1.21043076 50.53901459 -1.79284027 51.14095642 -2.39289856 51.76113892 C-4.06137085 53.41119385 -4.06137085 53.41119385 -7.03817749 55.78863525 C-11.314389 55.32954629 -13.29486618 52.87630665 -16.24130249 49.878479 C-16.72395569 49.39158096 -17.20660889 48.90468292 -17.70388794 48.4030304 C-19.23918599 46.85098075 -20.76370674 45.28881389 -22.28817749 43.72613525 C-23.32914969 42.67011169 -24.37080889 41.61476487 -25.41317749 40.56011963 C-27.96285382 37.97742111 -30.50296945 35.38554643 -33.03817749 32.78863525 C-31.74767226 29.96084514 -30.38415723 27.87455335 -28.2124939 25.65655518 C-27.64495392 25.0730278 -27.07741394 24.48950043 -26.49267578 23.88829041 C-25.88120697 23.27145889 -25.26973816 22.65462738 -24.63973999 22.019104 C-24.00837128 21.37870682 -23.37700256 20.73830963 -22.72650146 20.07850647 C-21.39270242 18.73022594 -20.05609631 17.38471732 -18.71688843 16.04180908 C-16.6652337 13.97820344 -14.63296826 11.89668169 -12.60067749 9.81402588 C-11.30235029 8.50624061 -10.00290844 7.19956079 -8.70223999 5.894104 C-8.09481964 5.26715134 -7.48739929 4.64019867 -6.86157227 3.99424744 C-2.5566029 -0.26512692 -2.5566029 -0.26512692 0 0 Z " fill="#3A64E7" transform="translate(385.0381774902344,107.21136474609375)"/>
<path d="M0 0 C2.3109837 0.6416501 4.60215443 1.31870001 6.88911438 2.04231262 C8.83375694 2.64097161 10.7953375 3.18959768 12.77458191 3.66142273 C24.91597837 7.22836719 32.52620134 16.52118791 41.11328125 25.33203125 C42.81929871 27.05299206 44.52710792 28.77217836 46.23661804 30.4896698 C50.70471695 34.9881358 55.14825324 39.5101076 59.58691406 44.03759766 C64.13109827 48.66400376 68.69836206 53.26750306 73.26367188 57.87304688 C82.19836724 66.89322627 91.10806112 75.9376791 100 85 C98.44805246 88.32759923 96.69378051 90.48580485 94 93 C90.7578389 91.57523861 88.59884037 89.84813922 86.10223389 87.34947205 C85.33946136 86.59089401 84.57668884 85.83231598 83.790802 85.05075073 C82.55002396 83.80154343 82.55002396 83.80154343 81.28417969 82.52709961 C80.40577423 81.6505925 79.52736877 80.77408539 78.62234497 79.87101746 C76.21810668 77.46984784 73.81842149 75.06429731 71.42080593 72.65652537 C68.9123445 70.13927691 66.39860895 67.62730542 63.88555908 65.11463928 C59.66898576 60.89712999 55.45630108 56.67576807 51.24609375 52.4519043 C46.37219966 47.56225995 41.4930736 42.67788695 36.61093211 37.79647821 C31.91839086 33.10454623 27.22870794 28.40976878 22.54062653 23.71338081 C20.54299484 21.71221057 18.54450889 19.71189913 16.54537201 17.71223259 C13.759982 14.92565612 10.97886188 12.13484286 8.19824219 9.34350586 C7.3629599 8.50867676 6.52767761 7.67384766 5.66708374 6.8137207 C4.91559052 6.05796249 4.16409729 5.30220428 3.38983154 4.52354431 C2.73133587 3.86337279 2.07284019 3.20320127 1.39439011 2.52302456 C0 1 0 1 0 0 Z " fill="#3B65E7" transform="translate(136,168)"/>
<path d="M0 0 C5.51742939 4.59770123 10.62415082 9.48724884 15.68920898 14.57568359 C16.52903824 15.41536682 17.36886749 16.25505005 18.23414612 17.12017822 C20.51646567 19.40307146 22.79656386 21.68815464 25.07565951 23.97426558 C27.46546682 26.37036135 29.85814213 28.76358985 32.25050354 31.15713501 C36.77136042 35.6810891 41.28966403 40.20758423 45.80703646 44.73501742 C50.95384057 49.89303288 56.10351424 55.0481794 61.25342071 60.20309711 C71.83879052 70.79889481 82.42058456 81.39825687 93 92 C91.44805246 95.32759923 89.69378051 97.48580485 87 100 C84.10779364 98.68571759 81.99980407 97.26432665 79.7255249 95.05351257 C79.10052597 94.45005005 78.47552704 93.84658752 77.83158875 93.22483826 C77.15723282 92.56371536 76.48287689 91.90259247 75.78808594 91.22143555 C75.06883438 90.52335785 74.34958282 89.82528015 73.60853577 89.10604858 C66.06255412 81.76598567 58.57610525 74.36454266 51.09423828 66.95922852 C47.55579275 63.46066441 44.00010005 59.98123361 40.42724609 56.51782227 C36.0942133 52.3172801 31.79509611 48.08456616 27.51691437 43.82819557 C25.89359935 42.22365192 24.25929585 40.63013579 22.61327362 39.04889488 C11.19882838 28.06002637 3.87670745 17.57018651 0 2 C0 1.34 0 0.68 0 0 Z " fill="#3A65E6" transform="translate(168,136)"/>
<path d="M0 0 C3.04332765 1.3584202 5.12309151 2.88463024 7.453125 5.2578125 C8.071875 5.88300781 8.690625 6.50820312 9.328125 7.15234375 C9.96234375 7.80332031 10.5965625 8.45429688 11.25 9.125 C12.22453125 10.11306641 12.22453125 10.11306641 13.21875 11.12109375 C14.81711727 12.74296643 16.41061897 14.3693281 18 16 C13.18132753 21.80891746 7.98743592 27.13065552 2.625 32.4375 C1.79355469 33.26443359 0.96210938 34.09136719 0.10546875 34.94335938 C-1.9274104 36.96455531 -3.96259963 38.98336335 -6 41 C-9.24095547 39.47356598 -11.08366184 38.02542368 -13.375 35.25 C-16.4263013 31.6385246 -19.61657344 28.30090396 -23 25 C-21.43717018 21.23396131 -19.0936525 18.86360849 -16.2109375 16.015625 C-15.74765045 15.55516785 -15.2843634 15.09471069 -14.80703735 14.62030029 C-13.33434102 13.15874922 -11.85482597 11.70432832 -10.375 10.25 C-9.37193678 9.25697389 -8.36932743 8.26348911 -7.3671875 7.26953125 C-4.91669165 4.84102059 -2.4600333 2.41885325 0 0 Z " fill="#F1A73B" transform="translate(294,246)"/>
<path d="M0 0 C7.43608419 6.2952696 7.43608419 6.2952696 10.8125 9.6875 C11.37582031 10.24824219 11.93914062 10.80898438 12.51953125 11.38671875 C14 13 14 13 16 16 C15.52293059 20.65283648 12.20316106 22.89909597 8.875 25.8125 C7.68653473 26.87913379 6.49902737 27.9468359 5.3125 29.015625 C4.74015625 29.52802734 4.1678125 30.04042969 3.578125 30.56835938 C0.60467767 33.26580603 -2.19857983 36.12654331 -5 39 C-5.99 39.99 -6.98 40.98 -8 42 C-13.28 36.72 -18.56 31.44 -24 26 C-21.99989392 21.99978784 -20.14151829 19.91000659 -16.9921875 16.796875 C-16.50670441 16.3142218 -16.02122131 15.8315686 -15.52102661 15.33428955 C-13.97700134 13.80141438 -12.42615176 12.27565996 -10.875 10.75 C-9.82375991 9.70879639 -8.77297343 8.66713459 -7.72265625 7.625 C-5.15366996 5.07800536 -2.57851839 2.53734823 0 0 Z " fill="#F2BC44" transform="translate(270,270)"/>
<path d="M0 0 C2.41154655 3.61731982 3.21231543 7.20670204 4.1875 11.375 C4.37763672 12.13039063 4.56777344 12.88578125 4.76367188 13.6640625 C6.58709083 21.36144732 6.58709083 21.36144732 5 25 C2.82158381 27.62790656 0.41114526 29.96459233 -2.0625 32.3125 C-2.72572266 32.95767578 -3.38894531 33.60285156 -4.07226562 34.26757812 C-5.70617671 35.85447018 -7.34868147 37.43126328 -9 39 C-12.82801404 35.72583496 -16.65064375 32.44680373 -20.4375 29.125 C-21.45650391 28.23167969 -21.45650391 28.23167969 -22.49609375 27.3203125 C-22.99238281 26.88460938 -23.48867188 26.44890625 -24 26 C-22.4152642 22.13671373 -19.94043113 19.71123077 -16.9921875 16.796875 C-16.50670441 16.3142218 -16.02122131 15.8315686 -15.52102661 15.33428955 C-13.97700134 13.80141438 -12.42615176 12.27565996 -10.875 10.75 C-9.82375991 9.70879639 -8.77297343 8.66713459 -7.72265625 7.625 C-5.15366996 5.07800536 -2.57851839 2.53734823 0 0 Z " fill="#F0A63C" transform="translate(407,358)"/>
</svg>
